<svg width="45" height="50" viewBox="0 0 45 50" fill="none" xmlns="http://www.w3.org/2000/svg">
<g clip-path="url(#clip0_0_1426)">
<path d="M12.2612 46.813C13.1866 47.7086 12.5299 49.2533 11.2164 49.2533H2.94776C2.17712 49.2633 1.43398 48.9671 0.881373 48.43C0.32876 47.8927 0.0117925 47.1583 0 46.3877V38.3877C0 37.1041 1.58955 36.4698 2.52239 37.3727L12.2612 46.813Z" fill="#0A1551"/>
<path d="M25.1642 47.433C24.5843 46.8573 24.1241 46.1725 23.81 45.4181C23.4959 44.6637 23.3342 43.8547 23.3342 43.0375C23.3342 42.2203 23.4959 41.4112 23.81 40.6569C24.1241 39.9025 24.5843 39.2177 25.1642 38.642L33.9851 29.8808C35.162 28.7132 36.7527 28.0581 38.4104 28.0581C40.0683 28.0581 41.6589 28.7132 42.8358 29.8808C43.4157 30.4565 43.8759 31.1413 44.19 31.8957C44.5041 32.65 44.6657 33.4592 44.6657 34.2763C44.6657 35.0935 44.5041 35.9025 44.19 36.6569C43.8759 37.4113 43.4157 38.0961 42.8358 38.6718L34.0149 47.433C32.838 48.6006 31.2474 49.2557 29.5895 49.2557C27.9318 49.2557 26.3411 48.6006 25.1642 47.433Z" fill="#FFB629"/>
<path d="M1.86508 25.4104C1.2852 24.8347 0.824976 24.1499 0.510909 23.3956C0.196845 22.6412 0.0351562 21.8321 0.0351562 21.0149C0.0351562 20.1978 0.196845 19.3887 0.510909 18.6343C0.824976 17.8799 1.2852 17.1951 1.86508 16.6194L16.7084 1.86566C17.8853 0.698113 19.4759 0.0429688 21.1338 0.0429688C22.7915 0.0429688 24.3822 0.698113 25.5591 1.86566C26.139 2.4414 26.5992 3.12619 26.9133 3.88058C27.2274 4.63496 27.3891 5.44404 27.3891 6.26119C27.3891 7.07834 27.2274 7.88743 26.9133 8.64184C26.5992 9.39616 26.139 10.0809 25.5591 10.6567L10.7084 25.4104C9.53176 26.5757 7.94273 27.2294 6.28672 27.2294C4.63074 27.2294 3.04169 26.5757 1.86508 25.4104Z" fill="#0099FF"/>
<path d="M14 35.9329C13.42 35.3572 12.9598 34.6724 12.6458 33.918C12.3317 33.1636 12.17 32.3545 12.17 31.5374C12.17 30.7203 12.3317 29.9112 12.6458 29.1568C12.9598 28.4024 13.42 27.7176 14 27.1419L34.0522 7.2165C35.2291 6.04894 36.8197 5.3938 38.4776 5.3938C40.1353 5.3938 41.726 6.04894 42.903 7.2165C43.4828 7.7922 43.943 8.47705 44.2571 9.23138C44.5712 9.98578 44.7329 10.7949 44.7329 11.6121C44.7329 12.4291 44.5712 13.2382 44.2571 13.9926C43.943 14.7471 43.4828 15.4318 42.903 16.0076L22.8507 35.9329C21.6738 37.1005 20.0831 37.7556 18.4253 37.7556C16.7675 37.7556 15.1768 37.1005 14 35.9329Z" fill="#FF6100"/>
</g>
<defs>
<clipPath id="clip0_0_1426">
<rect width="44.7761" height="50" fill="white"/>
</clipPath>
</defs>
</svg>
